<?xml version="1.0" standalone="no"?>
<!DOCTYPE svg PUBLIC "-//W3C//DTD SVG 20010904//EN"
 "http://www.w3.org/TR/2001/REC-SVG-20010904/DTD/svg10.dtd">
<svg version="1.0" xmlns="http://www.w3.org/2000/svg"
 width="2555.000000pt" height="2555.000000pt" viewBox="0 0 2555.000000 2555.000000"
 preserveAspectRatio="xMidYMid meet">
<metadata>
Created by potrace 1.14, written by Peter Selinger 2001-2017
</metadata>
<g transform="translate(0.000000,2555.000000) scale(0.100000,-0.100000)"
fill="#000000" stroke="none">
<path d="M12305 25544 c-735 -35 -1308 -99 -1920 -215 -3116 -590 -5907 -2327
-7822 -4870 -1095 -1453 -1869 -3131 -2258 -4889 -153 -693 -230 -1249 -287
-2055 -17 -241 -17 -1238 0 -1480 56 -802 135 -1365 287 -2055 650 -2942 2357
-5588 4786 -7417 1453 -1094 3132 -1870 4889 -2258 690 -152 1253 -231 2055
-287 241 -17 1239 -17 1480 0 802 56 1365 135 2055 287 2942 650 5588 2357
7417 4786 843 1120 1496 2371 1931 3699 308 940 502 1896 587 2890 35 413 40
547 40 1090 0 546 -6 711 -41 1105 -88 1011 -278 1946 -586 2885 -949 2900
-2916 5371 -5538 6957 -1384 837 -2901 1397 -4505 1662 -430 71 -773 111
-1270 146 -204 15 -1112 28 -1300 19z"/>
</g>
</svg>
